<svg width="33" height="32" viewBox="0 0 33 32" fill="none" xmlns="http://www.w3.org/2000/svg">
<g id="anchor icon">
<path id="Vector" d="M16.5 10C19.0681 10 21.15 7.98528 21.15 5.5C21.15 3.01472 19.0681 1 16.5 1C13.9319 1 11.85 3.01472 11.85 5.5C11.85 7.98528 13.9319 10 16.5 10ZM16.5 10V31M16.5 31C12.3891 31 8.44666 29.4196 5.53984 26.6066C2.63303 23.7936 1 19.9782 1 16H5.65M16.5 31C20.6109 31 24.5533 29.4196 27.4602 26.6066C30.367 23.7936 32 19.9782 32 16H27.35" stroke="white" stroke-width="1.8" stroke-linecap="round" stroke-linejoin="round"/>
</g>
</svg>
