<svg width="34" height="31" viewBox="0 0 34 31" fill="none" xmlns="http://www.w3.org/2000/svg">
<g id="book icon">
<path id="book" d="M17 7.44444C17 5.73527 16.3257 4.0961 15.1255 2.88753C13.9253 1.67897 12.2974 1 10.6 1H1V25.1667H12.2C13.473 25.1667 14.6939 25.6759 15.5941 26.5823C16.4943 27.4887 17 28.7181 17 30M17 7.44444V30M17 7.44444C17 5.73527 17.6743 4.0961 18.8745 2.88753C20.0747 1.67897 21.7026 1 23.4 1H33V25.1667H21.8C20.527 25.1667 19.3061 25.6759 18.4059 26.5823C17.5057 27.4887 17 28.7181 17 30" stroke="white" stroke-width="1.8" stroke-linecap="round" stroke-linejoin="round"/>
</g>
</svg>
