<svg width="33" height="33" viewBox="0 0 33 33" fill="none" xmlns="http://www.w3.org/2000/svg">
<g id="cup icon">
<path id="cup" d="M24.619 11.85H26.0952C27.6613 11.85 29.1632 12.5032 30.2705 13.6659C31.3779 14.8287 32 16.4057 32 18.05C32 19.6943 31.3779 21.2713 30.2705 22.4341C29.1632 23.5968 27.6613 24.25 26.0952 24.25H24.619M24.619 11.85H1V25.8C1 27.4443 1.62211 29.0213 2.72946 30.1841C3.83682 31.3468 5.33872 32 6.90476 32H18.7143C20.2803 32 21.7822 31.3468 22.8896 30.1841C23.9969 29.0213 24.619 27.4443 24.619 25.8V11.85ZM6.90476 1V5.65M12.8095 1V5.65M18.7143 1V5.65" stroke="white" stroke-width="1.8" stroke-linecap="round" stroke-linejoin="round"/>
</g>
</svg>
