<svg width="71" height="71" viewBox="0 0 71 71" fill="none" xmlns="http://www.w3.org/2000/svg">
<path d="M5.18911 17.7887L35 0.57735L64.8109 17.7887V52.2113L35 69.4226L5.18911 52.2113V17.7887Z" fill="white" stroke="#0E0E0E"/>
<path d="M18.2867 65.3084L1.0754 35.4976L18.2867 5.68667H52.7094L69.9207 35.4976L52.7094 65.3084H18.2867Z" stroke="#0E0E0E"/>
<path d="M39.3323 36.4715C41.5391 35.1686 43 32.8995 43 30.3182C43 26.2765 39.4183 23 35 23C30.5817 23 27 26.2765 27 30.3182C27 34.3599 30.5817 37.6364 35 37.6364C36.5965 37.6364 38.0838 37.2086 39.3323 36.4715ZM39.3323 36.4715L40.7143 46L35 42.8636L29.2857 46L30.6686 36.4759M39.3323 36.4715L39.3314 36.4655" stroke="#0E0E0E" stroke-width="1.5" stroke-linecap="round" stroke-linejoin="round"/>
</svg>
