<svg width="71" height="71" viewBox="0 0 71 71" fill="none" xmlns="http://www.w3.org/2000/svg">
<rect width="71" height="71" fill="#E5E5E5"/>
<g id="01_Main Home" clip-path="url(#clip0_0_1)">
<rect width="1366" height="8959" transform="translate(-498 -5435)" fill="white"/>
<g id="values">
<g id="2">
<g id="customer icon">
<path id="2_2" d="M5.18911 17.7887L35 0.57735L64.8109 17.7887V52.2113L35 69.4226L5.18911 52.2113V17.7887Z" fill="white" stroke="#0E0E0E"/>
<path id="1" d="M18.2867 65.3084L1.0754 35.4976L18.2867 5.68667H52.7094L69.9207 35.4976L52.7094 65.3084H18.2867Z" stroke="#0E0E0E"/>
<path id="Vector" d="M24 41.5V34.5C24 31.7152 25.1062 29.0445 27.0754 27.0754C29.0445 25.1062 31.7152 24 34.5 24C37.2848 24 39.9555 25.1062 41.9246 27.0754C43.8938 29.0445 45 31.7152 45 34.5V41.5M45 42.6667C45 43.2855 44.7542 43.879 44.3166 44.3166C43.879 44.7542 43.2855 45 42.6667 45H41.5C40.8812 45 40.2877 44.7542 39.8501 44.3166C39.4125 43.879 39.1667 43.2855 39.1667 42.6667V39.1667C39.1667 38.5478 39.4125 37.9543 39.8501 37.5168C40.2877 37.0792 40.8812 36.8333 41.5 36.8333H45V42.6667ZM24 42.6667C24 43.2855 24.2458 43.879 24.6834 44.3166C25.121 44.7542 25.7145 45 26.3333 45H27.5C28.1188 45 28.7123 44.7542 29.1499 44.3166C29.5875 43.879 29.8333 43.2855 29.8333 42.6667V39.1667C29.8333 38.5478 29.5875 37.9543 29.1499 37.5168C28.7123 37.0792 28.1188 36.8333 27.5 36.8333H24V42.6667Z" stroke="#0E0E0E" stroke-width="1.5" stroke-linecap="round" stroke-linejoin="round"/>
</g>
</g>
</g>
</g>
<defs>
<clipPath id="clip0_0_1">
<rect width="1366" height="8959" fill="white" transform="translate(-498 -5435)"/>
</clipPath>
</defs>
</svg>
