<svg width="71" height="71" viewBox="0 0 71 71" fill="none" xmlns="http://www.w3.org/2000/svg">
<path d="M5.18911 17.7887L35 0.57735L64.8109 17.7887V52.2113L35 69.4226L5.18911 52.2113V17.7887Z" fill="white" stroke="#0E0E0E"/>
<path d="M18.2867 65.3084L1.0754 35.4976L18.2867 5.68667H52.7094L69.9207 35.4976L52.7094 65.3084H18.2867Z" stroke="#0E0E0E"/>
<path d="M44.3036 27.6797C43.766 27.1472 43.1278 26.7248 42.4253 26.4366C41.7228 26.1483 40.9699 26 40.2095 26C39.4491 26 38.6961 26.1483 37.9936 26.4366C37.2912 26.7248 36.6529 27.1472 36.1153 27.6797L34.9997 28.7844L33.8841 27.6797C32.7983 26.6046 31.3256 26.0006 29.79 26.0006C28.2544 26.0006 26.7817 26.6046 25.6958 27.6797C24.61 28.7549 24 30.2131 24 31.7336C24 33.2541 24.61 34.7124 25.6958 35.7875L34.9997 45L44.3036 35.7875C44.8414 35.2553 45.268 34.6233 45.5591 33.9277C45.8502 33.2321 46 32.4866 46 31.7336C46 30.9807 45.8502 30.2352 45.5591 29.5396C45.268 28.844 44.8414 28.212 44.3036 27.6797Z" stroke="#0E0E0E" stroke-width="1.5" stroke-linecap="round" stroke-linejoin="round"/>
</svg>
