<svg width="70" height="15" viewBox="0 0 70 15" fill="none" xmlns="http://www.w3.org/2000/svg">
<g id="social icons">
<path id="Vector" d="M62.4984 3.62495C60.3691 3.62495 58.6516 5.32827 58.6516 7.43999C58.6516 9.55171 60.3691 11.255 62.4984 11.255C64.6277 11.255 66.3452 9.55171 66.3452 7.43999C66.3452 5.32827 64.6277 3.62495 62.4984 3.62495ZM62.4984 9.92026C61.1224 9.92026 59.9975 8.80796 59.9975 7.43999C59.9975 6.07202 61.119 4.95972 62.4984 4.95972C63.8777 4.95972 64.9993 6.07202 64.9993 7.43999C64.9993 8.80796 63.8744 9.92026 62.4984 9.92026ZM67.3998 3.4689C67.3998 3.96362 66.998 4.35874 66.5025 4.35874C66.0037 4.35874 65.6053 3.9603 65.6053 3.4689C65.6053 2.97749 66.007 2.57905 66.5025 2.57905C66.998 2.57905 67.3998 2.97749 67.3998 3.4689ZM69.9475 4.37202C69.8906 3.18003 69.6161 2.12417 68.7356 1.25425C67.8584 0.384326 66.7938 0.112061 65.5919 0.0522949C64.3532 -0.0174316 60.6403 -0.0174316 59.4016 0.0522949C58.203 0.10874 57.1384 0.381006 56.2578 1.25093C55.3773 2.12085 55.1062 3.17671 55.0459 4.3687C54.9756 5.59722 54.9756 9.27944 55.0459 10.508C55.1028 11.7 55.3773 12.7558 56.2578 13.6257C57.1384 14.4957 58.1996 14.7679 59.4016 14.8277C60.6403 14.8974 64.3532 14.8974 65.5919 14.8277C66.7938 14.7712 67.8584 14.499 68.7356 13.6257C69.6128 12.7558 69.8873 11.7 69.9475 10.508C70.0179 9.27944 70.0179 5.60054 69.9475 4.37202ZM68.3472 11.8261C68.0861 12.4769 67.5806 12.9783 66.921 13.2406C65.9334 13.6291 63.5898 13.5394 62.4984 13.5394C61.407 13.5394 59.0601 13.6257 58.0758 13.2406C57.4196 12.9816 56.914 12.4802 56.6496 11.8261C56.2578 10.8466 56.3482 8.52241 56.3482 7.43999C56.3482 6.35757 56.2612 4.03003 56.6496 3.05386C56.9107 2.40308 57.4162 1.90171 58.0758 1.6394C59.0634 1.25093 61.407 1.34058 62.4984 1.34058C63.5898 1.34058 65.9367 1.25425 66.921 1.6394C67.5772 1.89839 68.0827 2.39976 68.3472 3.05386C68.7389 4.03335 68.6485 6.35757 68.6485 7.43999C68.6485 8.52241 68.7389 10.85 68.3472 11.8261Z" fill="white"/>
<path id="Vector_2" d="M39.2493 4.44097C39.2601 4.59198 39.2601 4.74302 39.2601 4.89403C39.2601 9.49997 35.7547 14.8071 29.3478 14.8071C27.374 14.8071 25.5404 14.2354 23.998 13.243C24.2785 13.2754 24.5481 13.2862 24.8393 13.2862C26.468 13.2862 27.9672 12.736 29.1645 11.7976C27.6329 11.7652 26.3494 10.7621 25.9071 9.38133C26.1229 9.41367 26.3386 9.43526 26.5651 9.43526C26.8779 9.43526 27.1907 9.39209 27.4819 9.31662C25.8856 8.99299 24.6883 7.59072 24.6883 5.8972V5.85407C25.1521 6.11295 25.6914 6.27475 26.263 6.2963C25.3247 5.67065 24.7099 4.60277 24.7099 3.39464C24.7099 2.74745 24.8824 2.15417 25.1845 1.6364C26.8994 3.75061 29.4773 5.1313 32.3679 5.28234C32.3139 5.02346 32.2816 4.75381 32.2816 4.48414C32.2816 2.56407 33.8347 1 35.7654 1C36.7685 1 37.6745 1.42068 38.3109 2.10025C39.0982 1.94924 39.8532 1.65799 40.522 1.25888C40.2631 2.06791 39.713 2.74748 38.9904 3.17892C39.6915 3.10345 40.371 2.90925 40.9966 2.6396C40.5221 3.32993 39.9288 3.94475 39.2493 4.44097Z" fill="white"/>
<path id="Vector_3" d="M5.72197 2.49023H7V0.105469C6.77992 0.0732422 6.02159 0 5.13864 0C3.29583 0 2.03371 1.24219 2.03371 3.52441V5.625H0V8.29102H2.03371V15H4.52614V8.29102H6.47765L6.78788 5.625H4.52614V3.78809C4.52614 3.01758 4.7197 2.49023 5.72197 2.49023Z" fill="white"/>
</g>
</svg>
